PathFileType	4	(X/Y/Z)	C:\Users\chris\Documents\GitHub\baseballds\vids\pitch4_Sports2D\pitch4_Sports2D_px_person00.trc
DataRate	CameraRate	NumFrames	NumMarkers	Units	OrigDataRate	OrigDataStartFrame	OrigNumFrames
30	30	13	22	m	30	29	238
Frame#	Time	Hip			RHip			RKnee			RAnkle			RBigToe			RSmallToe			RHeel			LHip			LKnee			LAnkle			LBigToe			LSmallToe			LHeel			Neck			Head			Nose			RShoulder			RElbow			RWrist			LShoulder			LElbow			LWrist		
		X1	Y1	Z1	X2	Y2	Z2	X3	Y3	Z3	X4	Y4	Z4	X5	Y5	Z5	X6	Y6	Z6	X7	Y7	Z7	X8	Y8	Z8	X9	Y9	Z9	X10	Y10	Z10	X11	Y11	Z11	X12	Y12	Z12	X13	Y13	Z13	X14	Y14	Z14	X15	Y15	Z15	X16	Y16	Z16	X17	Y17	Z17	X18	Y18	Z18	X19	Y19	Z19	X20	Y20	Z20	X21	Y21	Z21	X22	Y22	Z22
29	0.9666666666666667	275.8151038496295	973.4609374511847	0.0	284.6142589240457	986.9648336263242	0.0	353.832056631584	1275.7257885691392	0.0	293.1145936144818	1585.9664980745872	0.0	435.5283232828634	1649.4996498910157	0.0	403.18648145307947	1664.1785286885508	0.0	258.87868582110474	1627.8421953695506	0.0	260.4474742164694	979.0792714516176	0.0	265.8208498880351	1254.8596848363163	0.0	263.8114609636042	1514.8670119539493	0.0	409.61614126406334	1560.7973201694235	0.0	387.02907434900067	1544.3266189443632	0.0	228.74808732646045	1552.7937289338179	0.0	340.3404723890353	544.3552042777875	0.0	395.59827728344817	383.8301164376219	0.0	452.8828594289142	488.6281650560458	0.0	289.71927283551736	601.6133759901343	0.0	258.5970751691957	820.7030449407994	0.0	362.88416318962857	1003.5779749133185	0.0	317.4203126735242	600.4582877219489	0.0	283.25530920034555	819.9408069464102	0.0	367.0450895524572	901.1969373267665	0.0
30	1.0	269.98390925451037	975.4044180190922	0.0	279.6929659993467	989.1644191896696	0.0	353.11967071609854	1278.7392141575567	0.0	289.34019013141943	1590.5811735899254	0.0	433.8876346819193	1649.2068334343292	0.0	403.48916914258905	1664.377784745696	0.0	254.93688350243488	1631.6798187778581	0.0	257.0627873022354	981.1775382678823	0.0	266.1819318258065	1254.5693281498638	0.0	262.0726715832799	1518.753279041256	0.0	406.13030603334335	1563.354632238216	0.0	384.505764454727	1546.131160264827	0.0	225.79139820642092	1556.6100122581283	0.0	337.80298748878926	546.1017021630897	0.0	391.9702117693657	383.85004917177315	0.0	451.2724970512491	489.408422745713	0.0	288.1081831753111	603.2358060112367	0.0	254.5590925001102	820.7197174167669	0.0	360.5750812388205	1002.4593057763431	0.0	323.0658601039511	603.1065754116569	0.0	285.88760276562346	818.5049280126805	0.0	376.9205719411084	865.2665201621045	0.0
31	1.0333333333333332	264.46302713652915	977.0942679018906	0.0	273.16629425605106	990.3293833200058	0.0	353.2790669179695	1280.4802550582556	0.0	284.2080114115653	1593.8721320129598	0.0	429.0162621778002	1648.0231740519384	0.0	399.7066502741808	1663.455654356842	0.0	251.0598504934477	1634.6837119864283	0.0	253.43335001230378	982.567726805773	0.0	267.31271052059327	1255.7993139810465	0.0	260.7764008694967	1524.7696590995179	0.0	403.8154550817917	1570.7336541149955	0.0	383.4866096254313	1553.3138187079526	0.0	222.563178641134	1563.9591258776522	0.0	334.91176039445384	547.5916440132816	0.0	390.14455376928686	384.8188217885436	0.0	448.74809429651964	490.4480107056455	0.0	285.81511947737044	605.3822855997194	0.0	251.86101063414569	822.59663050634	0.0	359.5002344695165	1003.9045728161394	0.0	326.4975881473646	605.4796580815523	0.0	286.39890599726783	817.0200081383039	0.0	379.2738974034795	868.9285894802723	0.0
32	1.0666666666666667	261.9507093733671	979.2647806914781	0.0	268.3264948867785	992.1118887159593	0.0	354.12193940991216	1281.068192561155	0.0	277.67127290641406	1593.3148130303834	0.0	422.38368162783905	1647.216733600723	0.0	393.22056134123727	1662.1451461143483	0.0	245.65321929077322	1634.5751586040842	0.0	251.2031283557649	985.350298371143	0.0	268.0022653854564	1259.9220241990424	0.0	259.11525125838625	1531.2755346817623	0.0	401.0363400821137	1581.4208373734596	0.0	382.3030536802902	1563.9262523436942	0.0	219.05832685635184	1571.8082566850396	0.0	332.07352542356165	548.5109367052899	0.0	389.94522912885833	386.13974404611463	0.0	446.73838820736705	491.83884190568494	0.0	283.2110202730891	606.6396529392842	0.0	249.57838381687657	824.8169037960648	0.0	358.08834263216704	1006.2065026614063	0.0	328.6287901891105	606.9206171258695	0.0	283.5014956931141	818.4388391329065	0.0	369.9096157916498	908.7719009752321	0.0
33	1.1	262.223917263419	982.5037644375016	0.0	266.48929100595296	995.6926601788472	0.0	354.88220489680714	1282.4408678431203	0.0	269.60250180631954	1590.394718859647	0.0	414.37564289257136	1646.9721033727465	0.0	384.94011237194	1660.4928636517357	0.0	236.8418585586248	1632.8033695058907	0.0	250.28995460517024	990.4195906171165	0.0	267.04548474994203	1265.5281637123023	0.0	257.6029639276895	1536.0197192625844	0.0	397.0784461435318	1591.0386874305696	0.0	379.78195637669523	1572.275440404609	0.0	216.60328109855215	1576.3456993016048	0.0	329.42423042341125	549.0212912495763	0.0	390.08256058246565	387.1912850913506	0.0	445.34527950368033	493.86608264616945	0.0	280.7472341879094	606.441254622511	0.0	245.4195269928029	826.4122137448902	0.0	354.76067893469553	1007.2524694895926	0.0	329.4282318952508	607.3545169139206	0.0	277.68206791275145	823.2966440053274	0.0	354.38372980891313	958.3342318577049	0.0
34	1.1333333333333333	262.78642091521544	985.1245740718545	0.0	265.40390903961423	999.1020967685295	0.0	354.23681917113913	1285.6525283633925	0.0	260.68990532370606	1589.8133227676828	0.0	404.46336403497656	1647.8124509183335	0.0	374.9310325711344	1659.562174789169	0.0	225.93288792808096	1633.0534099656436	0.0	250.89025532010194	995.2051535114316	0.0	265.53262313718255	1270.3404313007045	0.0	257.90115040563825	1537.7364894151303	0.0	393.61083658563075	1596.6487256789203	0.0	377.07581451668227	1574.9511633532666	0.0	216.77541823940996	1576.8427962853532	0.0	327.07788556336834	549.8289466344628	0.0	389.28140905785233	387.5438275062908	0.0	444.0363619527874	496.12964647167826	0.0	278.74298177191343	606.8768024641097	0.0	239.22937668432843	828.4230208962257	0.0	350.4345139532349	1008.3576331686129	0.0	329.0086092658372	608.4474198156183	0.0	271.94794529329215	828.759292287758	0.0	341.9506569853105	989.9061695491126	0.0
35	1.1666666666666667	262.4394671947912	986.2910576873344	0.0	262.9076411447974	1001.2348239233885	0.0	351.868050816043	1289.6219111605972	0.0	253.10498710523575	1593.0276330587444	0.0	395.0587411604897	1650.0979959326214	0.0	365.6083146285203	1660.5374187985449	0.0	216.48615310040424	1635.5797079586796	0.0	254.03023941915592	998.699610498213	0.0	265.01537679818387	1273.0901414651134	0.0	259.44596695703547	1536.8490124386176	0.0	391.78633481343894	1598.2032291861965	0.0	375.05842253200046	1572.5991119126686	0.0	218.41182147234508	1574.9366995020066	0.0	325.2197853243575	551.7510360545215	0.0	387.0616693822718	387.2287086925901	0.0	442.56028848870335	497.64765067642077	0.0	276.91724557509133	610.1095149731459	0.0	232.7877482516377	831.7242057614602	0.0	346.82372659996656	1011.0576949108238	0.0	330.1707992377092	612.0970417519326	0.0	270.7443672477117	832.928834306713	0.0	336.09572608886197	998.8617749823084	0.0
36	1.2	261.69529018758595	988.180151447822	0.0	258.91293493616143	1003.4951402053389	0.0	348.91559253045773	1292.4455594062294	0.0	248.79642430407654	1596.4611564278116	0.0	389.21339243431794	1652.4733795402076	0.0	358.5800355712138	1662.1783055852652	0.0	211.38955072113663	1637.8356169243193	0.0	258.7898177785328	1002.4455060736915	0.0	264.9481526498156	1273.9389067621933	0.0	259.6937998466154	1536.0149806118197	0.0	391.0258471013806	1599.676430195941	0.0	373.58688552641	1569.3165328470698	0.0	218.77142633160588	1573.7597409471987	0.0	323.9722122440197	554.5337220643519	0.0	384.070125380829	386.63964395772746	0.0	440.5791843322761	498.33992517591463	0.0	274.6325849358766	614.7758552118271	0.0	227.12311469314736	835.4417625123242	0.0	343.5570856556751	1014.6928179513399	0.0	334.97980128486785	617.417983866952	0.0	274.5647138472742	835.4723421884706	0.0	334.0206483646625	997.9144169176859	0.0
37	1.2333333333333334	260.99220200132805	992.1004824211245	0.0	254.04421234946713	1007.0286110775702	0.0	346.16714474919564	1293.814951051507	0.0	247.32436005855394	1597.75153789684	0.0	387.0272475215109	1654.5837445430288	0.0	353.0381925463914	1663.7908120485736	0.0	210.89338609848014	1639.5297487955875	0.0	263.2458293385323	1007.0446652458734	0.0	264.2638924943594	1274.7999010065719	0.0	258.70697200772616	1537.1895027266046	0.0	390.8283782073868	1603.9284554952665	0.0	373.0249795369367	1568.380878435871	0.0	217.7721844872085	1575.090831767082	0.0	323.4814194507808	556.8480883859713	0.0	381.38959543440063	386.0299778398783	0.0	438.381961428372	498.6868931687532	0.0	272.1297954974272	617.7805876838928	0.0	222.0245051185986	838.8964187572342	0.0	339.45033371178715	1018.7659001627818	0.0	341.3087309794421	621.5734743926323	0.0	278.85842769268095	836.4629599763289	0.0	332.72454214369714	996.4891888961888	0.0
38	1.2666666666666666	259.8727178281041	996.6074352810691	0.0	249.04358320808873	1012.0323891261313	0.0	342.5195819088871	1295.936341939842	0.0	246.38134498087427	1599.0884760504523	0.0	387.23347275097797	1658.5595328985887	0.0	349.8069810714594	1668.044408978405	0.0	212.4378587721766	1642.2135741606155	0.0	266.09804051497434	1012.3166772854328	0.0	263.71961212323447	1277.9091420825423	0.0	258.9049854155968	1539.8059078372098	0.0	390.9409029711316	1608.3492964259176	0.0	373.4309554771992	1570.0702320113194	0.0	217.0257202610253	1578.158337790776	0.0	323.43169048819937	558.2238997856198	0.0	379.4166483148939	385.55665594391917	0.0	436.9899309827023	498.1845568199336	0.0	270.2397161489354	618.4162395138377	0.0	217.192008719843	842.0138414427821	0.0	334.01726592377935	1023.6016482881188	0.0	344.5926571305047	623.4698663180624	0.0	279.7923946953798	837.0253816431745	0.0	331.4139011256104	997.5646512817534	0.0
39	1.3	257.8659854041766	1000.4946729153393	0.0	244.25071081772293	1018.045260894882	0.0	336.7778013529853	1300.617342354029	0.0	244.11561852601557	1602.7171530711087	0.0	387.4630847190442	1665.3000221866741	0.0	348.96692880982147	1675.7205415508824	0.0	212.71768270631296	1645.8337081780728	0.0	267.3605000505416	1017.9122640140007	0.0	264.26995372647536	1283.0217258066423	0.0	260.21703982172846	1543.2542556855813	0.0	390.55270447126185	1610.788324522367	0.0	373.72196890135467	1574.2632119385544	0.0	216.5546783233956	1582.3874253121992	0.0	323.0185881353165	559.6459279477326	0.0	377.2507299216804	385.3595144218121	0.0	436.2463314867323	496.2947498961365	0.0	268.752725499645	618.7110657785263	0.0	212.71781088487856	844.8531234961216	0.0	327.5499871059055	1029.6008030701853	0.0	343.6907118097407	624.4262317586138	0.0	278.7323715603459	838.5758583748903	0.0	329.6323748999651	1001.846215487792	0.0
40	1.3333333333333333	255.91702771376407	1002.9968709084177	0.0	239.0150988650812	1022.406390352193	0.0	330.32588549219554	1305.9418989730966	0.0	240.65346214474687	1607.5867708164722	0.0	384.5894637324414	1671.9351784617772	0.0	346.8223818567937	1682.3777240024892	0.0	210.0609882191683	1649.3045303043027	0.0	270.0369667189053	1021.4863972835483	0.0	265.75049501451446	1287.6283524593348	0.0	260.56337636220985	1545.9713198568975	0.0	388.82886285861696	1611.379793233436	0.0	372.5890249052344	1578.4791178660882	0.0	216.68946322959727	1585.2868180925261	0.0	322.10369659876216	561.7747351000569	0.0	373.7414131125281	384.7633428646112	0.0	434.98479461673486	493.95121920319457	0.0	266.6519078386837	620.9461579326413	0.0	208.83798196982164	848.9156971450425	0.0	321.8982028896981	1037.2950997887724	0.0	343.72731775003274	626.356419993063	0.0	280.89926318982293	841.284393449954	0.0	327.409011016266	1008.3763107317279	0.0
41	1.3666666666666667	255.25309851023584	1002.8881368358043	0.0	232.97968382226748	1022.5412513893127	0.0	324.44851697491816	1309.5197619396918	0.0	237.364666809058	1612.403621596453	0.0	379.93800682721474	1675.7612797159788	0.0	342.68075907783793	1685.233523795976	0.0	205.6094419339868	1652.9741682988824	0.0	276.51348072422724	1021.0191035672501	0.0	268.78970786598967	1290.7127288331114	0.0	259.72035709816106	1545.8082395933197	0.0	385.89942978596423	1610.2553816821496	0.0	370.0060877428307	1578.9285643048547	0.0	218.21074950589082	1583.7826202184217	0.0	321.1292193650958	563.7090774750806	0.0	369.19581587724804	382.3159398333778	0.0	433.10611459391464	491.8651945666831	0.0	263.5000322056813	625.1786613218338	0.0	205.8256918973957	855.9037067654544	0.0	319.21696823041617	1046.8015139443633	0.0	348.83743403699776	629.597712139353	0.0	288.4440820479184	844.3546044715852	0.0	326.31496999558476	1015.0978406327574	0.0
